<?xml version="1.0" encoding="UTF-8"?>
<svg id="Layer_1" data-name="Layer 1" xmlns="http://www.w3.org/2000/svg" viewBox="0 0 1043.45 1020.37">
  <defs>
    <style>
      .cls-1 {
        fill: #fff;
      }

      .cls-2 {
        fill: #6089c6;
      }
    </style>
  </defs>
  <g>
    <path class="cls-2" d="M721.2,1020.05c-20.53,0-42.01-1.01-64.75-2.07-8.36-.39-17-.8-25.7-1.15-5.64-.23-11.65-.34-18.35-.34-9.78,0-19.75.24-30.3.49-11.63.28-23.65.56-36.65.56-25.13,0-47.67-1.11-70.93-3.5-42.12-6.2-68.26-30.73-98.53-59.12-49.05-53.36-100.23-91.06-156.53-115.34-47.9-20.66-90.72-27.68-125.12-33.32-41.37-6.78-71.26-11.68-84.21-36.02-13.92-26.14-13.01-50.13,2.72-71.28,13.52-18.19,34.74-29.74,43.8-34.67.85-.34,1.77-.73,2.8-1.16,9.83-4.1,30.28-12.64,66.34-12.64,53.95,0,121.68,18.73,201.3,55.69.14-.99.31-2.18.51-3.54,2.61-17.9,9.54-65.44-3.5-117.79-12.23-49.11-49.84-120.87-86.21-190.27-39.83-76-77.46-147.79-78.26-183.04-.77-34.01,16.07-61.73,45.05-74.17,8.9-3.82,18.11-5.75,27.39-5.75,22.17,0,43,11.35,60.22,32.84,25.43,31.72,132.61,215.16,159.53,273.01,1.92-.18,15.36-1.42,18.46-1.74-.48-4.4-1.93-14.13-3.91-27.46-11.27-75.89-41.21-277.46-21.26-352.72,8.57-32.32,31.38-52.33,62.59-54.91,2.43-.2,4.84-.3,7.17-.3,37.34,0,54.17,25.34,61.71,46.59,28.49,80.28,49.92,344.91,51.66,384.68,2.42.19,5,.26,7.49.33,3.02.08,6.14.17,9.03.47,1.6-10.94,42.79-289.63,81.6-349.24,15.57-23.93,35.92-36.58,58.86-36.58,6.44,0,13.08.99,19.74,2.95,45.73,13.45,45.37,72.28,45.18,78.94-4.27,148.83-51.75,309-61.5,340.46,4.73,1.47,9.77,3.72,14.23,5.71,3.09,1.38,5.77,2.57,7.9,3.32,7.29-14.2,13.59-29.44,20.88-47.06,17.16-41.48,38.52-93.11,88.93-173.69,24.81-39.65,52-45.57,66-45.57,16.66,0,32.25,8.15,42.77,22.36,14.46,19.52,17.73,47.18,8.98,75.89-31.58,103.58-63.13,168.21-93.64,230.72-5.76,11.79-11.71,23.99-17.46,36.07,4.24,30.58,13.08,110.68,4.08,196.14-5.08,48.27-15.11,91.03-29.83,127.08-17.78,43.57-42.62,77.8-73.82,101.74-27.04,12.74-59.86,18.4-106.43,18.4h0Z"/>
    <path class="cls-1" d="M514.87.65c34.41,0,52.71,21.85,61.41,46.38,29.13,82.09,50.22,351.31,51.65,384.87,5.54.47,11.69.25,17.1.86,5.77-39.8,45.08-293.32,81.59-349.42,17.13-26.33,38.01-36.43,58.58-36.43,6.63,0,13.22,1.05,19.65,2.94,42.45,12.49,45.34,64.84,44.95,78.62-3.89,135.53-43.71,283.11-61.59,340.68,8.16,2.49,17.41,7.41,22.7,9.21,24.11-46.89,37.44-105.1,109.92-220.97,20.05-32.04,44.21-45.42,65.72-45.42,38.35,0,68.29,42.55,51.44,97.84-37.73,123.75-75.78,192.64-111.13,266.83,8.38,60.4,35.69,321.09-99.43,424.75-30.92,14.55-66.55,18.34-106.24,18.34-28.18,0-58.41-1.91-90.43-3.22-6.07-.25-12.16-.35-18.36-.35-20.54,0-42.13,1.05-66.95,1.05-20.9,0-44.1-.75-70.9-3.5-42.04-6.19-68.15-30.71-98.39-59.09C198.75,761.6,44.79,834.62,10.41,770.08c-32.3-60.66,24.01-93.34,46.39-105.51,8.75-3.48,29.27-13.76,68.99-13.76,42.36,0,106.56,11.7,201.57,55.85,1.74-13.18,11.27-64.82-2.94-121.89-25.62-102.86-162.93-305.88-164.46-373.24-.8-34.98,16.95-61.89,44.86-73.86,8.13-3.49,17.4-5.73,27.26-5.73,19.16,0,40.53,8.47,59.96,32.72,26.18,32.65,133.01,215.94,159.58,273.16,0,0,16.5-1.53,19.01-1.8-2.93-27.76-48.74-291.63-25.21-380.38,9.81-36.99,35.9-52.49,62.31-54.67,2.46-.2,4.84-.3,7.15-.3M514.87,0c-2.34,0-4.76.1-7.2.3-14.28,1.18-27.33,6.16-37.73,14.42-12.06,9.58-20.53,23.28-25.15,40.73-19.97,75.32,9.98,276.95,21.25,352.85,1.93,13.01,3.35,22.58,3.87,27.12-3.49.35-15.41,1.46-17.9,1.69-12.33-26.45-43.59-83.43-79.77-145.43-29.09-49.84-65.3-109.49-79.7-127.45-17.29-21.56-38.2-32.96-60.47-32.96-9.32,0-18.57,1.95-27.51,5.78-29.11,12.49-46.03,40.33-45.25,74.48.81,35.33,38.45,107.15,78.3,183.19,36.36,69.38,73.96,141.12,86.18,190.2,13.02,52.28,6.1,99.78,3.5,117.66-.17,1.17-.32,2.21-.45,3.11-79.49-36.85-147.13-55.54-201.04-55.54-36.13,0-56.62,8.56-66.47,12.67-1.03.43-1.94.81-2.76,1.14h-.04s-.03.03-.03.03c-9.08,4.94-30.35,16.52-43.91,34.76-15.8,21.27-16.73,45.37-2.74,71.63,13.03,24.47,42.99,29.39,84.45,36.18,34.39,5.64,77.18,12.66,125.05,33.3,56.26,24.26,107.4,61.94,156.35,115.19l.09.08c30.31,28.43,56.48,52.99,98.69,59.21,23.3,2.4,45.85,3.51,70.99,3.51,13,0,25.03-.29,36.66-.56,10.55-.25,20.51-.49,30.29-.49,6.7,0,12.69.11,18.33.34,8.7.36,17.35.76,25.7,1.15,22.74,1.07,44.22,2.07,64.76,2.07,46.63,0,79.49-5.67,106.52-18.4l.06-.03.06-.04c31.25-23.97,56.12-58.24,73.92-101.87,14.73-36.08,24.77-78.87,29.85-127.17,8.98-85.4.17-165.46-4.07-196.12,5.74-12.05,11.68-24.21,17.42-35.98,30.51-62.52,62.07-127.17,93.66-230.77,8.78-28.81,5.49-56.58-9.03-76.18-10.59-14.3-26.27-22.5-43.03-22.5-14.06,0-41.38,5.94-66.27,45.72-50.43,80.6-72.7,134.43-88.96,173.74-7.24,17.51-13.51,32.66-20.74,46.78-2.07-.74-4.65-1.9-7.61-3.21-4.37-1.95-9.3-4.15-13.96-5.62,9.97-32.19,57.16-191.84,61.42-340.23.19-6.69.55-65.74-45.41-79.26-6.69-1.97-13.36-2.96-19.83-2.97-23.05,0-43.49,12.7-59.13,36.73-38.53,59.2-79.39,334.05-81.6,349.06-2.81-.28-5.82-.36-8.74-.44-2.39-.07-4.85-.13-7.18-.31-1.83-40.75-23.24-304.38-51.66-384.49C569.31,25.46,552.4,0,514.87,0h0Z"/>
  </g>
  <path class="cls-1" d="M595.42,688.03c-83.8-119.61-245.09,26.83-144.98,114.27,78.51,68.58,205.85-27.39,144.98-114.27Z"/>
  <path class="cls-1" d="M752.31,650.69c-117.67-.06-134.27,194.61,6.92,177.38,96.44,4.35,131.73-177.38-6.92-177.38Z"/>
  <path class="cls-2" d="M568.59,724.77c-6.4-73.8-124.73-59.01-112.69,14.15,6.48,73.76,125,59.47,112.69-14.15Z"/>
  <path class="cls-2" d="M750.11,685.74c-69.42-.67-70.58,107.22-1.04,107.89,69.42.67,70.58-107.22,1.04-107.89Z"/>
</svg>